<svg xmlns="http://www.w3.org/2000/svg" width="196.349" height="33.378" viewBox="0 0 196.349 33.378"><g id="レイヤー_2" data-name="レイヤー 2"><g id="レイヤー_1-2" data-name="レイヤー 1"><path d="M18.048,9a11,11,0,0,0-5.691-1.486c-4.5,0-6.2,2.76-6.2,5.1,0,3.185,1.954,4.8,6.285,6.624,5.224,2.209,7.9,4.884,7.9,9.513,0,5.138-3.737,9.087-10.7,9.087A14.9,14.9,0,0,1,1.911,35.8l.977-2.93a13.2,13.2,0,0,0,6.964,2c4.332,0,6.879-2.336,6.879-5.818,0-3.185-1.741-5.138-5.945-6.837-4.883-1.826-8.2-4.671-8.2-9.13,0-4.926,3.992-8.536,9.9-8.536a13.147,13.147,0,0,1,6.624,1.529Z" transform="translate(-1.911 -4.5)"/><path d="M47.687,5.01,36.562,37.368H32.824L22.59,5.052h3.822L31.38,21.274c1.359,4.374,2.549,8.451,3.4,12.23h.127a123.62,123.62,0,0,1,3.61-12.23L43.908,5.01Z" transform="translate(-1.911 -4.5)"/><path d="M74.269,36.052a26.41,26.41,0,0,1-9.215,1.656c-12.7,0-15.712-9.47-15.712-16.307,0-9.852,6.412-16.689,16.562-16.689a18.773,18.773,0,0,1,7.473,1.359L72.443,9a15.252,15.252,0,0,0-6.624-1.316c-7.644,0-12.782,4.926-12.782,13.5,0,8.748,4.883,13.631,12.272,13.631a12.338,12.338,0,0,0,5.478-.934V23.524H64.248V20.679H74.269Z" transform="translate(-1.911 -4.5)"/><path d="M107.305,37.368H90.4V5.01h3.525V34.353h13.377Z" transform="translate(-1.911 -4.5)"/><path d="M137.751,20.892c0,11.38-6.37,16.986-14.013,16.986-8.026,0-13.717-6.328-13.717-16.434,0-10.532,5.988-16.944,14.1-16.944C132.4,4.5,137.751,11.125,137.751,20.892Zm-24.035.467c0,6.879,3.567,13.589,10.149,13.589,6.667,0,10.192-6.5,10.192-13.886,0-6.5-3.185-13.632-10.107-13.632C116.816,7.43,113.716,14.479,113.716,21.359Z" transform="translate(-1.911 -4.5)"/><path d="M166.158,36.052a26.41,26.41,0,0,1-9.215,1.656c-12.7,0-15.712-9.47-15.712-16.307,0-9.852,6.413-16.689,16.562-16.689a18.778,18.778,0,0,1,7.474,1.359L164.333,9a15.257,15.257,0,0,0-6.625-1.316c-7.644,0-12.782,4.926-12.782,13.5,0,8.748,4.883,13.631,12.272,13.631a12.338,12.338,0,0,0,5.478-.934V23.524h-6.539V20.679h10.021Z" transform="translate(-1.911 -4.5)"/><path d="M198.26,20.892c0,11.38-6.369,16.986-14.013,16.986-8.026,0-13.716-6.328-13.716-16.434,0-10.532,5.987-16.944,14.1-16.944C192.91,4.5,198.26,11.125,198.26,20.892Zm-24.035.467c0,6.879,3.567,13.589,10.15,13.589,6.667,0,10.191-6.5,10.191-13.886,0-6.5-3.185-13.632-10.107-13.632C177.325,7.43,174.225,14.479,174.225,21.359Z" transform="translate(-1.911 -4.5)"/></g></g></svg>